# xmcd
#
# Track frame offsets:
# 150
# 11637
# 23857
# 37067
# 48377
# 60590
# 72267
# 85655
# 95585
# 109877
# 123507
# 136532
# 148332
# 158645
# 170045
# 181010
# 194152
# 205622
# 219045
# 231167
#
# Disc length: 3224 seconds
#
#
# Revision: 0
# Processed by: cddbd v1.5.2PL0 Copyright (c) Steve Scherf et al.
# Submitted via: FreeRIP 2.951 
#
DISCID=180c9614
DTITLE=Palomo y Gorrion - Esto Es Lo Mejor 20 Exitos
DYEAR=1900
DGENRE=Latin
TTITLE0=Ingratos Ojos Míos - Palomo y Gorrion
TTITLE1=Trágico Destino - Palomo y Gorrion
TTITLE2=El Contrabando dEl Paso - Palomo y Gorrion
TTITLE3=Ya No Quiero Limosna -Palomo y Gorrion
TTITLE4=No Compro Amores - Palomo y Gorrion
TTITLE5=El Pávido Návido -Palomo y Gorrion
TTITLE6=En Toda la Chapa - Palomo y Gorrion
TTITLE7=Y...Dicen - Palomo y Gorrion
TTITLE8=Eres Casado -Palomo y Gorrion
TTITLE9=El Pajaro Prieto - Palomo y Gorrion
TTITLE10=El Capiro - Palomo y Gorrion
TTITLE11=Aquí Se Quebró Una Taza -Palomo y Gorrion
TTITLE12=Tres Suspiros - Palomo y Gorrion
TTITLE13=La Cuenta y un Gendarme -Palomo y Gorrion
TTITLE14=Cállate Sinfonola -Palomo y Gorrion
TTITLE15=Voy a Cruzar la Frontera - Palomo y Gorrion
TTITLE16=Hoy Te Mandaré Una Carta - Palomo y Gorrion
TTITLE17=Amor Ingrato- Palomo y Gorrion
TTITLE18=Mil Alfileres- Palomo y Gorrion
TTITLE19=Cartas Infames -Palomo y Gorrion
EXTD=
EXTT0=
EXTT1=
EXTT2=
EXTT3=
EXTT4=
EXTT5=
EXTT6=
EXTT7=
EXTT8=
EXTT9=
EXTT10=
EXTT11=
EXTT12=
EXTT13=
EXTT14=
EXTT15=
EXTT16=
EXTT17=
EXTT18=
EXTT19=
PLAYORDER=
